Coordinates
version=1
nRows=5
nColumns=40
inDegrees=yes

Units are S.I. units (second, meters, Newtons, ...)
Angles are in degrees.

endheader
time	pelvis_tilt	pelvis_list	pelvis_rotation	pelvis_tx	pelvis_ty	pelvis_tz	hip_flexion_r	hip_adduction_r	hip_rotation_r	knee_angle_r	knee_angle_r_beta	ankle_angle_r	subtalar_angle_r	mtp_angle_r	hip_flexion_l	hip_adduction_l	hip_rotation_l	knee_angle_l	knee_angle_l_beta	ankle_angle_l	subtalar_angle_l	mtp_angle_l	lumbar_extension	lumbar_bending	lumbar_rotation	arm_flex_r	arm_add_r	arm_rot_r	elbow_flex_r	pro_sup_r	wrist_flex_r	wrist_dev_r	arm_flex_l	arm_add_l	arm_rot_l	elbow_flex_l	pro_sup_l	wrist_flex_l	wrist_dev_l
      0.00000000	     -4.31772245	     -4.72286221	      0.87128011	     -1.01838964	      0.91970853	      0.98109135	     29.36773042	     -5.59599316	    -14.04305594	    -18.48424900	     -0.32261100	     -9.00969650	      0.11455394	     -0.96649613	    -13.47814502	      6.68404930	      8.99125743	    -21.44220073	     -0.37423700	      4.74323106	     -9.28045946	    -16.81032330	     -1.02260525	      4.24604729	    -14.73184700	    -13.55846485	    -10.47027105	    -29.18801963	     14.37096394	     89.95437384	      0.00000000	      0.00000000	      9.33856430	     13.14355716	     -9.11664851	     58.44427482	     89.95437384	      0.00000000	      0.00000000
      0.01000000	     -4.10449077	     -5.10857614	      0.86765416	     -1.00227283	      0.92037770	      0.98644431	     29.07863462	     -5.12068223	    -13.97500227	    -19.82722772	     -0.34605041	     -9.26617532	      1.74435772	     -2.27322609	    -13.34353106	      7.65878294	      9.27603190	    -23.80395650	     -0.41545742	      2.89554357	     -8.71845189	    -16.83314987	     -0.91445393	      4.67582420	    -14.17183001	    -13.46104090	    -10.52645596	    -28.93580538	     14.35431334	     89.95437384	      0.00000000	      0.00000000	      8.96737937	     12.91306609	     -8.83152472	     58.35269383	     89.95437384	      0.00000000	      0.00000000
      0.02000000	     -4.25651159	     -5.20930865	      0.70145724	     -0.98667428	      0.92077488	      0.99218048	     29.69686820	     -4.84862051	    -14.08427527	    -22.53715281	     -0.39334752	     -8.66933661	     -1.05656322	     -2.70402240	    -12.34227199	      8.24845508	      9.30131381	    -26.88363547	     -0.46920795	      0.74399219	     -6.89032188	    -15.70543877	     -0.43260781	      4.73823297	    -13.52469384	    -13.40161351	    -10.50362527	    -28.31357852	     14.53777932	     89.95437384	      0.00000000	      0.00000000	      8.42251507	     12.67732195	     -8.11361126	     58.17514810	     89.95437384	      0.00000000	      0.00000000
      0.03000000	     -4.29711083	     -5.29490593	      0.32565776	     -0.97140780	      0.92181836	      0.99799468	     29.99793037	     -4.25328354	    -13.38880561	    -24.98120214	     -0.43600423	     -6.98067960	     -1.23888096	     -3.00827403	    -11.16296100	      8.78088835	      9.58113043	    -30.20814077	     -0.52723152	     -2.29653051	     -4.88536227	    -14.25101599	     -0.18834756	      4.82459046	    -12.57686269	    -13.26059967	    -10.45760019	    -27.66612407	     14.86327281	     89.95437384	      0.00000000	      0.00000000	      7.94776184	     12.42309360	     -7.53872307	     57.81221257	     89.95437384	      0.00000000	      0.00000000
      0.04000000	     -5.19226735	     -5.26652765	      0.00539918	     -0.95686281	      0.92162830	      1.00390060	     31.04457551	     -3.62278199	    -12.07951363	    -26.71669228	     -0.46629425	     -5.99094717	     -1.46560380	     -3.34883782	     -8.45120811	      9.19096231	      9.28612201	    -34.22765308	     -0.59738524	     -5.60015283	     -2.66651616	    -12.87492116	      1.03701637	      4.70602568	    -11.89591903	    -13.02951151	    -10.43678458	    -26.79484141	     15.01437624	     89.95437384	      0.00000000	      0.00000000	      7.17485389	     12.18429497	     -6.58938630	     57.34756935	     89.95437384	      0.00000000	      0.00000000
